<svg width="37" height="38" viewBox="0 0 37 38" fill="none" xmlns="http://www.w3.org/2000/svg">
<path fill-rule="evenodd" clip-rule="evenodd" d="M7.11636 17.67C7.11636 12.1174 11.6176 7.61621 17.1701 7.61621C22.7227 7.61621 27.2239 12.1174 27.2239 17.67C27.2239 20.3717 26.1582 22.8246 24.4243 24.6311C24.3686 24.6708 24.3154 24.7157 24.2654 24.7657C24.2154 24.8157 24.1706 24.8688 24.1308 24.9245C22.3244 26.6582 19.8717 27.7238 17.1701 27.7238C11.6176 27.7238 7.11636 23.2225 7.11636 17.67ZM25.119 27.3871C22.9544 29.16 20.1865 30.2238 17.1701 30.2238C10.2369 30.2238 4.61636 24.6033 4.61636 17.67C4.61636 10.7367 10.2369 5.11621 17.1701 5.11621C24.1034 5.11621 29.7239 10.7367 29.7239 17.67C29.7239 20.6866 28.66 23.4546 26.8869 25.6194L32.0175 30.75C32.5057 31.2382 32.5057 32.0296 32.0175 32.5178C31.5294 33.006 30.7379 33.006 30.2498 32.5178L25.119 27.3871Z" fill="#131414"/>
</svg>
