<svg width="39" height="40" viewBox="0 0 39 40" fill="none" xmlns="http://www.w3.org/2000/svg">
<path d="M18.2924 35.0342C9.40051 22.1435 7.75 20.8205 7.75 16.083C7.75 9.59364 13.0106 4.33301 19.5 4.33301C25.9894 4.33301 31.25 9.59364 31.25 16.083C31.25 20.8205 29.5995 22.1435 20.7076 35.0342C20.124 35.8771 18.8759 35.877 18.2924 35.0342ZM19.5 20.9788C22.2039 20.9788 24.3958 18.7869 24.3958 16.083C24.3958 13.3791 22.2039 11.1872 19.5 11.1872C16.7961 11.1872 14.6042 13.3791 14.6042 16.083C14.6042 18.7869 16.7961 20.9788 19.5 20.9788Z" fill="#F5F5F5"/>
</svg>
