<svg width="36" height="36" viewBox="0 0 36 36" fill="none" xmlns="http://www.w3.org/2000/svg">
<rect width="36" height="36" rx="18" fill="#131414"/>
<path d="M10.5 22.2632C10.5 23.0968 10.8656 23.8453 11.4375 24.3663V26.0526C11.4375 26.5737 11.8594 27 12.375 27H13.3125C13.8281 27 14.25 26.5737 14.25 26.0526V25.1053H21.75V26.0526C21.75 26.5737 22.1719 27 22.6875 27H23.625C24.1406 27 24.5625 26.5737 24.5625 26.0526V24.3663C25.1344 23.8453 25.5 23.0968 25.5 22.2632V12.7895C25.5 9.47368 22.1438 9 18 9C13.8562 9 10.5 9.47368 10.5 12.7895V22.2632ZM13.7812 23.2105C13.0031 23.2105 12.375 22.5758 12.375 21.7895C12.375 21.0032 13.0031 20.3684 13.7812 20.3684C14.5594 20.3684 15.1875 21.0032 15.1875 21.7895C15.1875 22.5758 14.5594 23.2105 13.7812 23.2105ZM22.2188 23.2105C21.4406 23.2105 20.8125 22.5758 20.8125 21.7895C20.8125 21.0032 21.4406 20.3684 22.2188 20.3684C22.9969 20.3684 23.625 21.0032 23.625 21.7895C23.625 22.5758 22.9969 23.2105 22.2188 23.2105ZM23.625 17.5263H12.375V12.7895H23.625V17.5263Z" fill="#1CC8EE"/>
</svg>
